<svg width="105" height="52" viewBox="0 0 105 52" fill="none" xmlns="http://www.w3.org/2000/svg">
<g clip-path="url(#clip0_53_32791)">
<path fill-rule="evenodd" clip-rule="evenodd" d="M16.9924 21.9165C17.2998 21.9118 17.6077 21.9094 17.9161 21.9094C24.1943 21.9094 30.2596 22.8211 35.9874 24.5183V34.6092L35.9506 34.5966C34.5042 33.9376 33.0224 33.3428 31.509 32.8156V40.6201C31.4925 40.6146 31.4756 40.6099 31.4586 40.6052C27.0012 38.7198 22.1008 37.6778 16.9569 37.6778C12.522 37.6778 8.26808 38.4522 4.32303 39.874V35.1827C8.35494 33.1985 12.2487 32.0576 16.9063 31.2699C18.8152 30.9466 20.8631 30.7285 22.9225 30.621C20.0978 30.1502 17.1967 29.9054 14.2385 29.9054C9.24735 29.9054 4.41907 30.603 -0.154297 31.9046V24.5183C1.31654 24.0828 2.80975 23.6983 4.32303 23.368V16.5678C15.0233 16.523 24.6591 11.9675 31.4275 4.70507L31.509 4.63846V16.2923C27.9251 18.3881 24.0051 20.0444 19.8015 21.1703L19.478 21.2574C18.6499 21.4794 17.8211 21.7015 16.9924 21.9165Z" fill="black"/>
<path d="M87.1475 37.2471V24.4084H90.0819L95.6205 32.5888L95.5107 24.4084H98.4083V37.2471H95.4738L89.9352 29.0675L90.045 37.2471H87.1475Z" fill="black"/>
<path d="M77.5452 37.6135C73.6566 37.6135 70.7959 34.7528 70.7959 30.8274C70.7959 26.9027 73.6566 24.0412 77.5452 24.0412C81.4329 24.0412 84.2944 26.9027 84.2944 30.8274C84.2944 34.7528 81.4329 37.6135 77.5452 37.6135ZM73.7853 30.8274C73.7853 33.2118 75.3812 34.9544 77.5452 34.9544C79.7091 34.9544 81.305 33.2118 81.305 30.8274C81.305 28.4249 79.7091 26.6642 77.5452 26.6642C75.3812 26.6642 73.7853 28.4249 73.7853 30.8274Z" fill="black"/>
<path d="M67.74 37.2471H60.2021V24.1519H67.74V26.4265H62.9711V29.3052H67.4096V31.5798H62.9711V34.9545H67.74V37.2471ZM67.9416 20.3002C67.7705 20.4712 67.5446 20.6792 67.2629 20.924C66.982 21.1688 66.676 21.4253 66.3457 21.6944C66.0279 21.9636 65.7102 22.2201 65.3924 22.4649C65.0864 22.6972 64.818 22.8926 64.585 23.0518H62.7694V22.8133C62.9656 22.5811 63.1915 22.3119 63.4481 22.0059C63.7172 21.6882 63.9801 21.3641 64.2366 21.0338C64.494 20.6917 64.7074 20.3857 64.8785 20.1174H67.9416V20.3002Z" fill="black"/>
<path d="M51.588 37.5947C48.9281 37.5947 46.2871 36.0725 46.1953 33.138L49.0568 32.9545C49.1117 34.3848 50.2118 35.2832 51.606 35.2832C52.7798 35.2832 53.6601 34.6782 53.6601 33.7249C53.6601 32.9913 53.1101 32.5512 52.156 32.3487L50.7076 32.0553C47.9011 31.5053 46.7273 30.0569 46.7273 28.1306C46.7273 25.4347 49.1117 24.0593 51.5142 24.0593C54.0266 24.0593 56.5209 25.5265 56.6864 28.3692L53.7519 28.5159C53.6421 27.1773 52.67 26.37 51.4773 26.37C50.4322 26.37 49.6068 26.9757 49.6068 27.8921C49.6068 28.6257 50.1207 29.0479 50.9822 29.2315L52.4314 29.5249C55.256 30.0749 56.5766 31.5241 56.5766 33.5225C56.5766 36.2553 54.0823 37.5947 51.588 37.5947Z" fill="black"/>
</g>
<defs>
<clipPath id="clip0_53_32791">
<rect width="105" height="51" fill="white" transform="translate(0 0.5)"/>
</clipPath>
</defs>
</svg>
