<svg width="35" height="25" viewBox="0 0 35 25" fill="none" xmlns="http://www.w3.org/2000/svg">
<path d="M10.9944 25C24.2017 25 31.4286 15.3789 31.4286 7.0497C31.4286 6.77903 31.4286 6.50837 31.4146 6.2377C32.8151 5.35187 34.0336 4.23228 35 2.96506C33.7115 3.46949 32.3249 3.80167 30.8683 3.96161C32.3529 3.18652 33.4874 1.9439 34.0336 0.467519C32.6471 1.1934 31.1064 1.71014 29.4678 1.99311C28.1513 0.762795 26.2885 0 24.2297 0C20.2661 0 17.0448 2.82972 17.0448 6.31151C17.0448 6.80364 17.1148 7.28346 17.2269 7.75098C11.2605 7.49262 5.96639 4.97047 2.42297 1.1565C1.80672 2.09154 1.45658 3.17421 1.45658 4.33071C1.45658 6.52067 2.73109 8.45226 4.64986 9.58415C3.47339 9.54724 2.36695 9.26427 1.40056 8.79675C1.40056 8.82136 1.40056 8.84596 1.40056 8.88287C1.40056 11.9341 3.87955 14.4931 7.15686 15.0714C6.55462 15.219 5.92437 15.2928 5.26611 15.2928C4.80392 15.2928 4.35574 15.2559 3.92157 15.1821C4.83193 17.6919 7.493 19.5128 10.6303 19.562C8.16527 21.2598 5.07003 22.2687 1.70868 22.2687C1.13445 22.2687 0.560224 22.2441 0 22.1826C3.16527 23.9542 6.94678 25 10.9944 25Z" fill="#EB008B"/>
</svg>
