<svg width="515" height="67" viewBox="0 0 515 67" fill="none" xmlns="http://www.w3.org/2000/svg">
<path d="M0.88 66V1.2H15.2V66H0.88ZM24.8625 66V1.2H34.9425L48.2225 32.4V1.2H60.0625V66H50.3825L37.1025 32.4V66H24.8625ZM75.5463 66V11.84H65.7863V1.2H99.6263V11.84H89.9463V66H75.5463ZM105.331 66V1.2H134.451V10.96H119.651V27.04H130.931V36.96H119.651V56.32H134.611V66H105.331ZM141.113 66V1.2H158.953C163.326 1.2 167.113 1.68 170.313 2.64C173.513 3.6 175.993 5.33333 177.753 7.84C179.566 10.2933 180.473 13.7867 180.473 18.32C180.473 20.9867 180.259 23.36 179.833 25.44C179.406 27.52 178.606 29.3333 177.432 30.88C176.313 32.3733 174.686 33.6267 172.553 34.64L181.433 66H166.633L159.513 36.96H155.433V66H141.113ZM155.433 28.72H159.433C161.459 28.72 163.033 28.3733 164.153 27.68C165.273 26.9333 166.046 25.8933 166.473 24.56C166.953 23.1733 167.193 21.52 167.193 19.6C167.193 16.8267 166.686 14.6667 165.673 13.12C164.659 11.5733 162.793 10.8 160.073 10.8H155.433V28.72ZM443.066 66V1.2H471.066V10.88H457.386V27.2H469.306V37.2H457.386V66H443.066ZM496.313 66.96C491.406 66.96 487.513 66.08 484.633 64.32C481.806 62.5067 479.806 60 478.633 56.8C477.46 53.5467 476.873 49.7333 476.873 45.36V22C476.873 17.52 477.46 13.68 478.633 10.48C479.806 7.22666 481.806 4.72 484.633 2.96C487.513 1.2 491.406 0.319997 496.313 0.319997C501.113 0.319997 504.846 1.12 507.513 2.72C510.233 4.26667 512.153 6.45333 513.273 9.28C514.393 12.1067 514.953 15.36 514.953 19.04V24.64H500.953V18.16C500.953 16.88 500.873 15.6533 500.713 14.48C500.606 13.3067 500.233 12.3467 499.593 11.6C498.953 10.8 497.86 10.4 496.313 10.4C494.82 10.4 493.7 10.8 492.953 11.6C492.26 12.4 491.806 13.4133 491.593 14.64C491.433 15.8133 491.353 17.0667 491.353 18.4V48.88C491.353 50.32 491.46 51.6533 491.673 52.88C491.94 54.0533 492.42 55.0133 493.113 55.76C493.86 56.4533 494.926 56.8 496.313 56.8C497.806 56.8 498.873 56.4267 499.513 55.68C500.153 54.88 500.553 53.8667 500.713 52.64C500.873 51.4133 500.953 50.16 500.953 48.88V42.08H514.953V47.68C514.953 51.36 514.393 54.6667 513.273 57.6C512.206 60.48 510.313 62.7733 507.593 64.48C504.926 66.1333 501.166 66.96 496.313 66.96Z" fill="white"/>
<path d="M209.55 66V1.2H223.87V56.32H238.75V66H209.55ZM241.899 66L254.139 1.2H270.459L282.539 66H269.339L267.179 52.32H257.659L255.419 66H241.899ZM258.939 43.76H265.819L262.379 18.48L258.939 43.76ZM304.946 66.96C300.466 66.96 296.919 66.0267 294.306 64.16C291.746 62.2933 289.906 59.68 288.786 56.32C287.719 52.9067 287.186 48.9867 287.186 44.56V22.8C287.186 18.2133 287.772 14.24 288.946 10.88C290.119 7.52 292.119 4.93333 294.946 3.12C297.826 1.25333 301.719 0.319997 306.626 0.319997C311.426 0.319997 315.186 1.12 317.906 2.72C320.679 4.32 322.652 6.53333 323.826 9.36C324.999 12.1867 325.586 15.4933 325.586 19.28V23.44H311.586V18.16C311.586 16.7733 311.479 15.4933 311.266 14.32C311.106 13.1467 310.679 12.2133 309.986 11.52C309.346 10.7733 308.279 10.4 306.786 10.4C305.239 10.4 304.119 10.8267 303.426 11.68C302.732 12.48 302.279 13.4933 302.066 14.72C301.906 15.9467 301.826 17.2267 301.826 18.56V48.56C301.826 50 301.959 51.36 302.226 52.64C302.546 53.8667 303.079 54.88 303.826 55.68C304.626 56.4267 305.746 56.8 307.186 56.8C308.679 56.8 309.826 56.4 310.626 55.6C311.426 54.8 311.986 53.76 312.306 52.48C312.626 51.2 312.786 49.84 312.786 48.4V40.8H306.946V32.4H325.666V66H316.226L315.426 60.64C314.572 62.4533 313.319 63.9733 311.666 65.2C310.012 66.3733 307.772 66.96 304.946 66.96ZM353.188 66.96C348.335 66.96 344.495 66.1067 341.668 64.4C338.841 62.6933 336.815 60.24 335.588 57.04C334.361 53.84 333.748 50.0267 333.748 45.6V21.52C333.748 17.04 334.361 13.2267 335.588 10.08C336.815 6.93333 338.841 4.53333 341.668 2.88C344.495 1.17333 348.335 0.319997 353.188 0.319997C358.095 0.319997 361.961 1.17333 364.788 2.88C367.668 4.53333 369.721 6.93333 370.948 10.08C372.175 13.2267 372.788 17.04 372.788 21.52V45.6C372.788 50.0267 372.175 53.84 370.948 57.04C369.721 60.24 367.668 62.6933 364.788 64.4C361.961 66.1067 358.095 66.96 353.188 66.96ZM353.188 56.8C354.681 56.8 355.775 56.4267 356.468 55.68C357.161 54.9333 357.615 53.9733 357.828 52.8C358.041 51.6267 358.148 50.4267 358.148 49.2V18C358.148 16.72 358.041 15.52 357.828 14.4C357.615 13.2267 357.161 12.2667 356.468 11.52C355.775 10.7733 354.681 10.4 353.188 10.4C351.801 10.4 350.761 10.7733 350.068 11.52C349.375 12.2667 348.921 13.2267 348.708 14.4C348.495 15.52 348.388 16.72 348.388 18V49.2C348.388 50.4267 348.468 51.6267 348.628 52.8C348.841 53.9733 349.268 54.9333 349.908 55.68C350.601 56.4267 351.695 56.8 353.188 56.8ZM398.703 66.96C394.65 66.96 391.263 66.24 388.543 64.8C385.823 63.36 383.77 61.1467 382.383 58.16C380.996 55.12 380.223 51.2 380.063 46.4L392.303 44.56C392.356 47.3333 392.596 49.5733 393.023 51.28C393.503 52.9867 394.143 54.2133 394.943 54.96C395.796 55.7067 396.81 56.08 397.983 56.08C399.476 56.08 400.436 55.5733 400.863 54.56C401.343 53.5467 401.583 52.48 401.583 51.36C401.583 48.6933 400.943 46.4533 399.663 44.64C398.383 42.7733 396.65 40.9067 394.463 39.04L388.863 34.16C386.41 32.08 384.33 29.7333 382.623 27.12C380.97 24.4533 380.143 21.1733 380.143 17.28C380.143 11.7867 381.77 7.6 385.023 4.72C388.276 1.78666 392.703 0.319997 398.303 0.319997C401.77 0.319997 404.543 0.906664 406.623 2.08C408.756 3.25333 410.356 4.8 411.423 6.72C412.543 8.58666 413.29 10.5867 413.663 12.72C414.09 14.8 414.33 16.8 414.383 18.72L402.063 20.24C402.01 18.32 401.876 16.6667 401.663 15.28C401.503 13.84 401.13 12.7467 400.543 12C399.956 11.2 399.05 10.8 397.823 10.8C396.49 10.8 395.503 11.36 394.863 12.48C394.276 13.6 393.983 14.72 393.983 15.84C393.983 18.24 394.543 20.2133 395.663 21.76C396.836 23.2533 398.356 24.8267 400.223 26.48L405.583 31.2C408.41 33.6 410.783 36.32 412.703 39.36C414.676 42.4 415.663 46.16 415.663 50.64C415.663 53.68 414.97 56.4533 413.583 58.96C412.196 61.4133 410.223 63.36 407.663 64.8C405.156 66.24 402.17 66.96 398.703 66.96Z" fill="#EB008B"/>
</svg>
