<svg width="35" height="35" viewBox="0 0 35 35" fill="none" xmlns="http://www.w3.org/2000/svg">
<path d="M17.5016 0C12.7489 0 12.1524 0.0207816 10.2857 0.10573C8.42269 0.191042 7.15101 0.48599 6.03829 0.91875C4.88729 1.36573 3.91093 1.96365 2.93821 2.93672C1.96476 3.90943 1.36684 4.88578 0.918395 6.03641C0.484536 7.14948 0.189221 8.42151 0.105366 10.2838C0.0218751 12.1505 0 12.7473 0 17.5C0 22.2527 0.0211464 22.8473 0.105731 24.714C0.191409 26.577 0.486359 27.8487 0.91876 28.9614C1.36611 30.1124 1.96403 31.0888 2.93711 32.0615C3.90947 33.0349 4.88583 33.6343 6.0361 34.0813C7.14955 34.514 8.4216 34.809 10.2843 34.8943C12.151 34.9792 12.7471 35 17.4995 35C22.2526 35 22.8472 34.9792 24.7139 34.8943C26.5769 34.809 27.8501 34.514 28.9635 34.0813C30.1142 33.6343 31.0891 33.0349 32.0614 32.0615C33.0349 31.0888 33.6328 30.1124 34.0812 28.9618C34.5115 27.8487 34.8068 26.5767 34.8943 24.7144C34.9781 22.8477 35 22.2527 35 17.5C35 12.7473 34.9781 12.1508 34.8943 10.2842C34.8068 8.42115 34.5115 7.14948 34.0812 6.03677C33.6328 4.88578 33.0349 3.90943 32.0614 2.93672C31.088 1.96328 30.1145 1.36536 28.9624 0.91875C27.8468 0.48599 26.5744 0.191042 24.7114 0.10573C22.8447 0.0207816 22.2504 0 17.4962 0H17.5016ZM15.9317 3.15365C16.3977 3.15292 16.9176 3.15365 17.5016 3.15365C22.1742 3.15365 22.728 3.17042 24.5732 3.25427C26.2794 3.33229 27.2055 3.6174 27.8224 3.85693C28.639 4.17411 29.2213 4.55328 29.8334 5.16578C30.4459 5.77828 30.8251 6.36161 31.143 7.17828C31.3826 7.79443 31.668 8.72047 31.7457 10.4267C31.8295 12.2715 31.8478 12.8257 31.8478 17.496C31.8478 22.1663 31.8295 22.7205 31.7457 24.5653C31.6677 26.2715 31.3826 27.1976 31.143 27.8137C30.8258 28.6304 30.4459 29.2119 29.8334 29.824C29.2209 30.4365 28.6394 30.8157 27.8224 31.1329C27.2062 31.3735 26.2794 31.6579 24.5732 31.7359C22.7284 31.8197 22.1742 31.838 17.5016 31.838C12.8287 31.838 12.2749 31.8197 10.4301 31.7359C8.72384 31.6571 7.79779 31.372 7.18054 31.1325C6.36387 30.8153 5.78053 30.4361 5.16802 29.8236C4.55552 29.2111 4.17635 28.6293 3.85843 27.8122C3.61889 27.1961 3.33342 26.2701 3.25576 24.5638C3.17191 22.719 3.15514 22.1648 3.15514 17.4916C3.15514 12.8184 3.17191 12.2671 3.25576 10.4223C3.33378 8.71609 3.61889 7.79005 3.85843 7.17318C4.17562 6.35651 4.55552 5.77318 5.16802 5.16068C5.78053 4.54818 6.36387 4.16901 7.18054 3.85109C7.79742 3.61047 8.72384 3.32609 10.4301 3.24771C12.0445 3.17479 12.6701 3.15292 15.9317 3.14927V3.15365ZM26.8431 6.05937C25.6837 6.05937 24.7431 6.99891 24.7431 8.15865C24.7431 9.31802 25.6837 10.2586 26.8431 10.2586C28.0025 10.2586 28.9431 9.31802 28.9431 8.15865C28.9431 6.99927 28.0025 6.05865 26.8431 6.05865V6.05937ZM17.5016 8.51302C12.5385 8.51302 8.51457 12.5369 8.51457 17.5C8.51457 22.4631 12.5385 26.4852 17.5016 26.4852C22.4648 26.4852 26.4873 22.4631 26.4873 17.5C26.4873 12.5369 22.4644 8.51302 17.5013 8.51302H17.5016ZM17.5016 11.6667C20.7231 11.6667 23.335 14.2782 23.335 17.5C23.335 20.7215 20.7231 23.3333 17.5016 23.3333C14.2798 23.3333 11.6682 20.7215 11.6682 17.5C11.6682 14.2782 14.2798 11.6667 17.5016 11.6667V11.6667Z" fill="#EB008B"/>
</svg>
