<svg width="35" height="23" viewBox="0 0 35 23" fill="none" xmlns="http://www.w3.org/2000/svg">
<path d="M17.614 0C17.6265 2.47119e-05 17.6399 5.35425e-05 17.6543 8.71782e-05L17.8092 0.000538171C19.6068 0.00671615 28.718 0.0684961 31.1746 0.686294C32.6805 1.06414 33.8663 2.17764 34.2688 3.5911C34.4904 4.36766 34.6448 5.39982 34.7525 6.46135L34.7734 6.67398C34.7903 6.85139 34.8059 7.02919 34.8204 7.20635L34.8372 7.41855C34.981 9.28909 34.9978 11.0395 34.9998 11.4225L35 11.4741C35 11.4784 35 11.4853 35 11.4853V11.5143C35 11.5143 35 11.5212 35 11.5254L34.9998 11.5771C34.9977 11.9745 34.9797 13.8447 34.8204 15.7934L34.8025 16.0062L34.7834 16.2192C34.675 17.3909 34.5125 18.5544 34.2688 19.4085C33.8663 20.8219 32.6805 21.9357 31.1746 22.3133C28.6361 22.9519 18.992 22.9966 17.6543 22.9998L17.5513 23C17.5428 23 17.5354 23 17.529 23L17.487 23C17.487 23 17.4773 23 17.4709 23L17.3456 22.9998C16.6696 22.9982 13.8721 22.986 10.9425 22.8919L10.5679 22.8794C10.5054 22.8773 10.4429 22.8751 10.3804 22.8728L10.0054 22.859L9.63125 22.8441C7.20421 22.7445 4.89016 22.5811 3.82565 22.3133C2.31973 21.9357 1.13389 20.8219 0.731404 19.4085C0.487571 18.5544 0.325016 17.3909 0.216646 16.2192L0.197533 16.0062L0.179579 15.7934C0.0259873 13.9155 0.0036918 12.1107 0.000455349 11.6262L6.86039e-05 11.5569C4.14639e-05 11.5507 1.88472e-05 11.5449 0 11.5397V11.4599C1.88472e-05 11.4547 4.14639e-05 11.4489 6.86039e-05 11.4427L0.000455349 11.3734C0.00338647 10.9347 0.0219502 9.41295 0.139521 7.73481L0.154739 7.52429C0.157363 7.48909 0.160032 7.45384 0.162746 7.41855L0.179579 7.20635C0.194068 7.02919 0.209727 6.85139 0.226648 6.67398L0.247565 6.46135C0.355243 5.39982 0.509738 4.36766 0.731404 3.5911C1.13389 2.17764 2.31973 1.06414 3.82565 0.686294C4.89016 0.418582 7.20421 0.255277 9.63125 0.155661L10.0054 0.140833L10.3804 0.126976C10.4429 0.124746 10.5054 0.122555 10.5679 0.120402L10.9425 0.107942C13.6851 0.0198684 16.3119 0.00355852 17.1908 0.000538171L17.3456 8.71782e-05C17.36 5.35425e-05 17.3735 2.47119e-05 17.3859 0H17.614ZM14.0001 6.57109V16.4285L23.0929 11.5001L14.0001 6.57109Z" fill="#EB008B"/>
</svg>
